<?xml version="1.0" encoding="UTF-8" standalone="no"?>
<!DOCTYPE svg PUBLIC "-//W3C//DTD SVG 1.1//EN" "http://www.w3.org/Graphics/SVG/1.1/DTD/svg11.dtd">
<svg width="100%" height="100%" viewBox="0 0 28 28" version="1.1" xmlns="http://www.w3.org/2000/svg" xmlns:xlink="http://www.w3.org/1999/xlink" xml:space="preserve" xmlns:serif="http://www.serif.com/" style="fill-rule:evenodd;clip-rule:evenodd;stroke-linecap:square;stroke-linejoin:round;stroke-miterlimit:1.5;">
    <g id="Artboard1" transform="matrix(0.21875,0,0,1,0,0)">
        <rect x="0" y="0" width="128" height="28" style="fill:none;"/>
        <clipPath id="_clip1">
            <rect x="0" y="0" width="128" height="28"/>
        </clipPath>
        <g clip-path="url(#_clip1)">
            <g transform="matrix(4.57143,0,0,1,0,0)">
                <path d="M0.5,27.5L0.501,27.5C4.78,27.5 8.68,25.049 10.536,21.194C12.622,16.863 15.378,11.137 17.464,6.806C19.32,2.951 23.22,0.5 27.499,0.5C27.5,0.5 27.5,0.5 27.5,0.5" style="fill:none;stroke:rgb(71,77,82);stroke-opacity:0.2;stroke-width:1px;"/>
            </g>
            <g transform="matrix(-4.57143,-1.22465e-16,5.59839e-16,-1,128,28)">
                <path d="M27.499,0C23.028,-0 18.953,2.561 17.013,6.589C14.928,10.92 12.171,16.646 10.086,20.977C8.313,24.659 4.588,27 0.501,27L0,27L0,0L27.499,0" style="fill:rgb(241,242,243);"/>
            </g>
        </g>
    </g>
</svg>
